<svg width="20" height="20" viewBox="0 0 20 20" fill="none" xmlns="http://www.w3.org/2000/svg">
<rect width="20" height="20" rx="2.96296" fill="#767676"/>
<path d="M7.25201 4.35921C7.71334 4.50695 8.15207 4.71192 8.55682 4.96877C9.12879 4.82982 9.71699 4.76012 10.3074 4.76131C10.9171 4.76131 11.5054 4.83357 12.0568 4.96819C12.4614 4.71158 12.8999 4.50682 13.361 4.35921C13.7889 4.22109 14.3987 3.99732 14.761 4.37785C15.0066 4.6366 15.068 5.07017 15.1116 5.40117C15.1607 5.77064 15.1724 6.252 15.0434 6.72986C15.5365 7.33417 15.8337 8.05504 15.8337 8.8406C15.8337 10.0306 15.1545 11.0638 14.1494 11.7794C13.6654 12.1191 13.1289 12.3857 12.559 12.5696C12.6905 12.8552 12.7635 13.1711 12.7635 13.5026V15.2509C12.7635 15.4055 12.6988 15.5537 12.5837 15.663C12.4685 15.7723 12.3123 15.8337 12.1495 15.8337H8.46533C8.30248 15.8337 8.1463 15.7723 8.03114 15.663C7.91599 15.5537 7.8513 15.4055 7.8513 15.2509V14.6734C7.2649 14.7416 6.77307 14.681 6.35491 14.5126C5.91773 14.3366 5.61317 14.0638 5.38414 13.8028C5.16677 13.5557 4.92976 12.9986 4.58713 12.8902C4.51061 12.866 4.43985 12.8277 4.3789 12.7776C4.31796 12.7275 4.26801 12.6664 4.23192 12.598C4.15903 12.4597 4.14699 12.2997 4.19845 12.153C4.24991 12.0063 4.36065 11.885 4.50632 11.8159C4.65199 11.7467 4.82065 11.7353 4.97519 11.7841C5.38414 11.9135 5.65062 12.1932 5.83299 12.4181C6.12772 12.7794 6.36719 13.2515 6.83386 13.4397C7.02605 13.5172 7.30788 13.5679 7.74876 13.5108L7.8513 13.491C7.85271 13.1739 7.92229 12.8604 8.05577 12.5696C7.48587 12.3857 6.94941 12.1191 6.46544 11.7794C5.46028 11.0638 4.78116 10.0312 4.78116 8.8406C4.78116 8.05621 5.07774 7.33592 5.56957 6.73219C5.44063 6.25433 5.45168 5.77181 5.5008 5.40176L5.50387 5.37961C5.5487 5.04045 5.60089 4.64126 5.85141 4.37785C6.21369 3.99732 6.82403 4.22168 7.25139 4.35979L7.25201 4.35921Z" fill="white"/>
</svg>
