<svg width="20" height="20" viewBox="0 0 20 20" fill="none" xmlns="http://www.w3.org/2000/svg">
<rect width="20" height="20" rx="3.33333" fill="#767676"/>
<path d="M10 5C11.9969 5 12.9956 4.99994 13.7148 5.47559C14.036 5.68812 14.3119 5.96395 14.5244 6.28516C15.0001 7.00442 15 8.00311 15 10C15 11.9969 15.0001 12.9956 14.5244 13.7148C14.3119 14.036 14.036 14.3119 13.7148 14.5244C12.9956 15.0001 11.9969 15 10 15C8.00311 15 7.00442 15.0001 6.28516 14.5244C5.96395 14.3119 5.68812 14.036 5.47559 13.7148C4.99994 12.9956 5 11.9969 5 10C5 8.00311 4.99994 7.00442 5.47559 6.28516C5.68812 5.96395 5.96395 5.68812 6.28516 5.47559C7.00442 4.99994 8.00311 5 10 5ZM10 7.41113C8.57042 7.41113 7.4112 8.57044 7.41113 10C7.41113 11.4296 8.57038 12.5889 10 12.5889C11.4296 12.5888 12.5889 11.4296 12.5889 10C12.5888 8.57047 11.4295 7.41118 10 7.41113ZM10 8.28711C10.9459 8.28716 11.7128 9.05415 11.7129 10C11.7129 10.9459 10.9459 11.7128 10 11.7129C9.05406 11.7129 8.28711 10.9459 8.28711 10C8.28718 9.05412 9.0541 8.28711 10 8.28711ZM12.6904 6.67285C12.3547 6.673 12.0822 6.94554 12.082 7.28125C12.082 7.61708 12.3546 7.8895 12.6904 7.88965C13.0263 7.88965 13.2988 7.61717 13.2988 7.28125C13.2987 6.94545 13.0263 6.67285 12.6904 6.67285Z" fill="white"/>
</svg>
