<svg width="20" height="20" viewBox="0 0 20 20" fill="none" xmlns="http://www.w3.org/2000/svg">
<rect width="20" height="20" rx="3.33333" fill="#767676"/>
<path d="M5 6.34458C5 6.02391 5.11262 5.75936 5.33784 5.55093C5.56306 5.34249 5.85586 5.23828 6.21622 5.23828C6.57014 5.23828 6.8565 5.34089 7.07529 5.54612C7.30051 5.75776 7.41313 6.03353 7.41313 6.37344C7.41313 6.68128 7.30374 6.93781 7.08494 7.14304C6.85972 7.35468 6.56371 7.4605 6.19691 7.4605H6.18726C5.83333 7.4605 5.54698 7.35468 5.32819 7.14304C5.10939 6.9314 5 6.66525 5 6.34458ZM5.12548 14.7621V8.33592H7.26834V14.7621H5.12548ZM8.4556 14.7621H10.5985V11.1738C10.5985 10.9494 10.6242 10.7762 10.6757 10.6543C10.7658 10.4363 10.9025 10.2519 11.0859 10.1012C11.2693 9.95048 11.4994 9.87512 11.7761 9.87512C12.4968 9.87512 12.8571 10.3593 12.8571 11.3277V14.7621H15V11.0776C15 10.1284 14.7748 9.40855 14.3243 8.91793C13.8739 8.42731 13.2786 8.182 12.5386 8.182C11.7085 8.182 11.0618 8.53794 10.5985 9.24982V9.26906H10.5888L10.5985 9.24982V8.33592H8.4556C8.46847 8.54115 8.4749 9.17927 8.4749 10.2503C8.4749 11.3213 8.46847 12.8253 8.4556 14.7621Z" fill="white"/>
</svg>
