<svg width="48" height="48" viewBox="0 0 48 48" fill="none" xmlns="http://www.w3.org/2000/svg">
<rect width="48" height="48" fill="#F0F0F0"/>
<path fill-rule="evenodd" clip-rule="evenodd" d="M23.9995 16.3204C22.3246 16.3204 20.9669 17.6781 20.9669 19.353C20.9669 21.0279 22.3246 22.3856 23.9995 22.3856C25.6744 22.3856 27.0321 21.0279 27.0321 19.353C27.0321 17.6781 25.6744 16.3204 23.9995 16.3204ZM19.4805 19.353C19.4805 16.8572 21.5037 14.834 23.9995 14.834C26.4953 14.834 28.5185 16.8572 28.5185 19.353C28.5185 21.8488 26.4953 23.872 23.9995 23.872C21.5037 23.872 19.4805 21.8488 19.4805 19.353Z" fill="#767676"/>
<path fill-rule="evenodd" clip-rule="evenodd" d="M18.3305 26.9318C19.6887 26.1211 21.5262 25.5811 23.9996 25.5811C26.473 25.5811 28.3105 26.1211 29.6687 26.9318C31.0274 27.7428 31.863 28.7989 32.372 29.7627L32.3721 29.7628C32.8276 30.6254 32.6785 31.5204 32.1615 32.1696C31.6642 32.7941 30.8547 33.1669 29.9858 33.1669H18.0135C17.1445 33.1669 16.335 32.7941 15.8377 32.1696C15.3207 31.5203 15.1717 30.6253 15.6272 29.7628C16.1363 28.7989 16.9718 27.7428 18.3305 26.9318ZM19.0924 28.2081C18.0029 28.8584 17.3439 29.6951 16.9416 30.4569L16.9416 30.4569C16.7776 30.7674 16.8298 31.0293 17.0005 31.2437C17.1909 31.4828 17.5557 31.6805 18.0135 31.6805H29.9858C30.4435 31.6805 30.8083 31.4828 30.9987 31.2437C31.1694 31.0293 31.2216 30.7674 31.0577 30.4569C30.6553 29.6951 29.9963 28.8584 28.9068 28.2081C27.8168 27.5574 26.2524 27.0675 23.9996 27.0675C21.7468 27.0675 20.1824 27.5574 19.0924 28.2081Z" fill="#767676"/>
</svg>
