<svg width="61" height="48" viewBox="0 0 61 48" fill="none" xmlns="http://www.w3.org/2000/svg">
<path d="M23.009 0.620331C22.398 1.38613 21.38 4.60273 19.853 10.5251L18.733 14.7117L10.537 17.8771C1.12 21.5021 0 22.1148 0 23.4933C0 25.127 2.138 26.046 9.112 27.322C12.777 27.986 15.984 28.65 16.29 28.854C16.951 29.263 16.951 33.5 16.239 40.699C15.577 47.438 15.781 48 18.988 48C20.107 48 27.947 46.06 36.346 43.66C44.796 41.312 53.246 39.014 55.232 38.555C59.457 37.585 61.188 36.564 60.984 35.236C60.882 34.674 58.693 32.377 56.046 30.028C53.399 27.68 47.8 22.1148 43.625 17.6219C30.848 3.93893 29.779 2.86683 28.049 1.38613C26.318 -0.094469 23.925 -0.451869 23.009 0.620331ZM32.426 10.0656C35.735 13.6395 40.622 18.8472 43.269 21.6042C45.916 24.361 48.156 26.863 48.258 27.118C48.461 27.578 45.916 26.454 30.645 19.3067C23.925 16.1412 21.889 14.967 22.042 14.3543C24.027 7.25763 25.3 3.58153 25.809 3.58153C26.114 3.58153 29.067 6.49173 32.426 10.0656ZM37.11 25.382C50.192 31.969 52.228 33.194 49.276 32.836C39.4 31.611 23.416 28.292 18.326 26.403C16.493 25.74 13.439 24.872 11.454 24.514C9.51899 24.106 7.68701 23.6464 7.43201 23.4422C7.17801 23.238 8.908 22.1658 11.25 21.1447C13.541 20.0725 16.391 18.694 17.511 18.0814L19.547 17.0092L22.093 18.0303C23.518 18.643 30.288 21.9105 37.11 25.382ZM24.892 31.152C28.507 32.071 47.596 35.747 49.021 35.747C50.345 35.798 47.851 36.717 42.251 38.299C39.044 39.167 32.681 41.159 28.099 42.69C23.569 44.222 19.598 45.447 19.293 45.447C18.733 45.447 18.784 43.66 19.649 33.551C19.802 31.662 20.158 30.131 20.464 30.131C20.718 30.131 22.754 30.59 24.892 31.152Z" fill="#EA4335"/>
</svg>
