<svg width="20" height="20" viewBox="0 0 20 20" fill="none" xmlns="http://www.w3.org/2000/svg">
<rect width="20" height="20" rx="3.33333" fill="#767676"/>
<path d="M7.447 4.57084C7.8931 4.72138 8.31735 4.9302 8.70872 5.1919C9.26181 5.05034 9.83059 4.97931 10.4015 4.98053C10.9911 4.98053 11.5599 5.05415 12.0931 5.19131C12.4843 4.92986 12.9084 4.72124 13.3542 4.57084C13.7681 4.43012 14.3577 4.20212 14.708 4.58984C14.9455 4.85347 15.0048 5.29522 15.047 5.63247C15.0945 6.0089 15.1058 6.49934 14.9811 6.98622C15.4579 7.60193 15.7453 8.3364 15.7453 9.13678C15.7453 10.3492 15.0886 11.4019 14.1166 12.1311C13.6486 12.4772 13.1299 12.7488 12.5788 12.9362C12.7058 13.2271 12.7765 13.5489 12.7765 13.8868V15.668C12.7765 15.8255 12.7139 15.9765 12.6026 16.0879C12.4912 16.1992 12.3402 16.2618 12.1828 16.2618H8.62025C8.46278 16.2618 8.31176 16.1992 8.20041 16.0879C8.08906 15.9765 8.0265 15.8255 8.0265 15.668V15.0796C7.45947 15.1491 6.98388 15.0873 6.57953 14.9157C6.15678 14.7364 5.86228 14.4586 5.64082 14.1926C5.43063 13.9408 5.20144 13.3732 4.87013 13.2627C4.79613 13.2381 4.72771 13.1991 4.66878 13.1481C4.60985 13.097 4.56155 13.0348 4.52665 12.965C4.45617 12.8242 4.44452 12.6611 4.49428 12.5117C4.54405 12.3622 4.65113 12.2387 4.79199 12.1682C4.93285 12.0977 5.09594 12.086 5.24538 12.1358C5.64082 12.2676 5.8985 12.5526 6.07485 12.7818C6.35985 13.1499 6.59141 13.6309 7.04266 13.8227C7.2285 13.9016 7.50103 13.9533 7.92735 13.8951L8.0265 13.8749C8.02787 13.5518 8.09515 13.2324 8.22422 12.9362C7.67315 12.7488 7.1544 12.4772 6.68641 12.1311C5.71444 11.4019 5.05775 10.3498 5.05775 9.13678C5.05775 8.33759 5.34453 7.60372 5.82013 6.98859C5.69544 6.50172 5.70613 6.01009 5.75363 5.63306L5.7566 5.6105C5.79994 5.26493 5.85041 4.85822 6.09266 4.58984C6.44297 4.20212 7.03375 4.43012 7.447 4.57084Z" fill="white"/>
</svg>
