<svg width="20" height="20" viewBox="0 0 20 20" fill="none" xmlns="http://www.w3.org/2000/svg">
<rect width="20" height="20" rx="3.33333" fill="#767676"/>
<path d="M10 4.99985C11.9969 4.99985 12.9956 4.99979 13.7148 5.47543C14.036 5.68796 14.3119 5.9638 14.5244 6.285C15.0001 7.00427 15 8.00296 15 9.99985C15 11.9967 15.0001 12.9954 14.5244 13.7147C14.3119 14.0359 14.036 14.3117 13.7148 14.5243C12.9956 14.9999 11.9969 14.9998 10 14.9998C8.00311 14.9998 7.00442 14.9999 6.28516 14.5243C5.96395 14.3117 5.68812 14.0359 5.47559 13.7147C4.99994 12.9954 5 11.9967 5 9.99985C5 8.00296 4.99994 7.00427 5.47559 6.285C5.68812 5.9638 5.96395 5.68796 6.28516 5.47543C7.00442 4.99979 8.00311 4.99985 10 4.99985ZM10 7.41196C8.57057 7.412 7.41139 8.57047 7.41113 9.99985C7.41113 11.4294 8.57041 12.5887 10 12.5887C11.4296 12.5887 12.5889 11.4295 12.5889 9.99985C12.5886 8.57044 11.4295 7.41196 10 7.41196ZM10 8.28793C10.9458 8.28793 11.7126 9.05412 11.7129 9.99985C11.7129 10.9458 10.9459 11.7127 10 11.7127C9.05409 11.7127 8.28711 10.9458 8.28711 9.99985C8.28737 9.05415 9.05425 8.28798 10 8.28793ZM12.6904 6.67368C12.3547 6.67386 12.083 6.94627 12.083 7.28207C12.0832 7.61767 12.3548 7.88931 12.6904 7.8895C13.0262 7.8895 13.2986 7.61779 13.2988 7.28207C13.2988 6.94615 13.0263 6.67368 12.6904 6.67368Z" fill="white"/>
</svg>
