<svg width="20" height="20" viewBox="0 0 20 20" fill="none" xmlns="http://www.w3.org/2000/svg">
<rect width="20" height="20" rx="3.33333" fill="#767676"/>
<path d="M5 6.3444C5 6.02373 5.11262 5.75918 5.33784 5.55075C5.56306 5.34231 5.85586 5.2381 6.21622 5.2381C6.57014 5.2381 6.8565 5.34071 7.07529 5.54594C7.30051 5.75758 7.41313 6.03335 7.41313 6.37326C7.41313 6.6811 7.30374 6.93763 7.08494 7.14286C6.85972 7.3545 6.56371 7.46032 6.19691 7.46032H6.18726C5.83333 7.46032 5.54698 7.3545 5.32819 7.14286C5.10939 6.93122 5 6.66506 5 6.3444ZM5.12548 14.7619V8.33574H7.26834V14.7619H5.12548ZM8.4556 14.7619H10.5985V11.1736C10.5985 10.9492 10.6242 10.776 10.6757 10.6542C10.7658 10.4361 10.9025 10.2517 11.0859 10.101C11.2693 9.95029 11.4994 9.87494 11.7761 9.87494C12.4968 9.87494 12.8571 10.3591 12.8571 11.3276V14.7619H15V11.0774C15 10.1283 14.7748 9.40837 14.3243 8.91775C13.8739 8.42713 13.2786 8.18182 12.5386 8.18182C11.7085 8.18182 11.0618 8.53776 10.5985 9.24964V9.26888H10.5888L10.5985 9.24964V8.33574H8.4556C8.46847 8.54096 8.4749 9.17909 8.4749 10.2501C8.4749 11.3211 8.46847 12.8251 8.4556 14.7619Z" fill="white"/>
</svg>
