<svg width="20" height="20" viewBox="0 0 20 20" fill="none" xmlns="http://www.w3.org/2000/svg">
<rect width="20" height="20" rx="3.33333" fill="#767676"/>
<path d="M10.2437 13.8776L7.98692 13.8355C7.25623 13.8208 6.52372 13.8501 5.80735 13.6978C4.7176 13.4703 4.64039 12.3548 4.55961 11.4191C4.4483 10.1037 4.49139 8.76433 4.70145 7.45985C4.82004 6.72789 5.28672 6.29113 6.00843 6.2436C8.44474 6.07112 10.8972 6.09156 13.3282 6.17203C13.5849 6.1794 13.8434 6.21972 14.0965 6.26562C15.3462 6.48946 15.3766 7.75357 15.4576 8.81772C15.5384 9.89284 15.5043 10.9735 15.3499 12.0413C15.226 12.9254 14.989 13.6668 13.9888 13.7384C12.7356 13.832 11.5112 13.9073 10.2544 13.8833C10.2545 13.8776 10.2473 13.8776 10.2437 13.8776ZM8.91693 11.6393C9.86132 11.0852 10.7877 10.5403 11.7267 9.98992C10.7805 9.4358 9.85592 8.89092 8.91693 8.34052V11.6393Z" fill="white"/>
</svg>
